<svg width="32" height="32" viewBox="0 0 32 32" fill="none" xmlns="http://www.w3.org/2000/svg">
<path d="M22.7866 14.6667H29.2666C29.0533 12.52 28.32 10.52 27.2133 8.80005C24.9066 9.90672 23.2266 12.0667 22.7866 14.6667Z" fill="white"/>
<path d="M9.2134 14.6667C8.7734 12.0667 7.0934 9.90672 4.78673 8.80005C3.68006 10.52 2.94673 12.52 2.7334 14.6667H9.2134Z" fill="white"/>
<path d="M20.0934 14.6666C20.52 11.2133 22.6 8.27994 25.5067 6.66661C23.3734 4.49328 20.52 3.05328 17.3334 2.73328V14.6666H20.0934Z" fill="white"/>
<path d="M11.9066 14.6666H14.6666V2.73328C11.48 3.05328 8.61329 4.49328 6.49329 6.66661C9.39995 8.27994 11.48 11.2133 11.9066 14.6666Z" fill="white"/>
<path d="M20.0934 17.3334H17.3334V29.2667C20.52 28.9467 23.3867 27.5067 25.5067 25.3334C22.6 23.72 20.52 20.7867 20.0934 17.3334Z" fill="white"/>
<path d="M4.78673 23.2C7.08006 22.0934 8.7734 19.92 9.2134 17.3334H2.7334C2.94673 19.48 3.68006 21.48 4.78673 23.2Z" fill="white"/>
<path d="M22.7866 17.3334C23.2266 19.9334 24.9066 22.0934 27.2133 23.2C28.32 21.48 29.0533 19.48 29.2666 17.3334H22.7866Z" fill="white"/>
<path d="M11.9066 17.3334C11.48 20.7867 9.39995 23.72 6.49329 25.3334C8.62662 27.5067 11.48 28.9467 14.6666 29.2667V17.3334H11.9066Z" fill="white"/>
</svg>
