<svg width="25" height="24" viewBox="0 0 25 24" fill="none" xmlns="http://www.w3.org/2000/svg">
<g clip-path="url(#clip0_1154_3110)">
<path d="M22.5042 14.2145V13.0144H14.1212C13.0423 13.0144 12.0809 13.5245 11.4635 14.3156C10.8462 13.5246 9.88485 13.0144 8.80592 13.0144H0.423035V14.2145H7.95899V15.6403H0.423035V16.8403H1.84883H10.7507H12.1765H21.0784H22.5042V15.6403H14.9683V14.2145H22.5042Z" fill="white"/>
<path d="M0.889054 18.2657H0.422694H-0.536743V20.1028H10.7503V18.677V18.2657H0.889054Z" fill="white"/>
<path d="M22.5041 18.2657H22.0378H12.1765V18.677V20.1028H23.4636V18.2657H22.5041Z" fill="white"/>
<path d="M13.0823 3.89697H11.6565V8.81458H13.0823V3.89697Z" fill="white"/>
<path d="M3.40882 7.31299L2.40063 8.32117L5.87784 11.7984L6.88602 10.7902L3.40882 7.31299Z" fill="white"/>
<path d="M16.833 4.64338L14.9509 9.18689L16.2683 9.73256L18.1503 5.18905L16.833 4.64338Z" fill="white"/>
<path d="M7.90547 4.64342L6.58813 5.18909L8.47016 9.7326L9.7875 9.18693L7.90547 4.64342Z" fill="white"/>
<path d="M21.3301 7.31393L17.8528 10.7911L18.861 11.7993L22.3382 8.32211L21.3301 7.31393Z" fill="white"/>
</g>
<defs>
<clipPath id="clip0_1154_3110">
<rect width="24" height="24" fill="white" transform="translate(0.369141)"/>
</clipPath>
</defs>
</svg>
