<svg width="25" height="24" viewBox="0 0 25 24" fill="none" xmlns="http://www.w3.org/2000/svg">
<path d="M12.3696 1C11.8174 1 11.3696 1.44772 11.3696 2C11.3696 2.55228 11.8174 3 12.3696 3C16.7597 3 20.4157 6.14325 21.2097 10.302L19.4835 9.43892C18.9895 9.19193 18.3889 9.39216 18.1419 9.88614C17.8949 10.3801 18.0951 10.9808 18.5891 11.2278L21.9224 12.8944C22.2324 13.0494 22.6006 13.0329 22.8954 12.8506C23.1902 12.6684 23.3696 12.3466 23.3696 12C23.3696 5.92486 18.4448 1 12.3696 1Z" fill="white"/>
<path fill-rule="evenodd" clip-rule="evenodd" d="M7.22644 2.42969C4.7806 2.42969 2.79787 4.41243 2.79787 6.85826C2.79787 9.30409 4.78061 11.2868 7.22644 11.2868C9.67227 11.2868 11.655 9.30409 11.655 6.85826C11.655 4.41243 9.67227 2.42969 7.22644 2.42969ZM4.79787 6.85826C4.79787 5.517 5.88517 4.42969 7.22644 4.42969C8.5677 4.42969 9.65501 5.517 9.65501 6.85826C9.65501 8.19952 8.5677 9.28683 7.22644 9.28683C5.88517 9.28683 4.79787 8.19952 4.79787 6.85826Z" fill="white"/>
<path fill-rule="evenodd" clip-rule="evenodd" d="M17.5121 12.7148C15.0663 12.7148 13.0835 14.6976 13.0835 17.1434C13.0835 19.5892 15.0663 21.572 17.5121 21.572C19.9579 21.572 21.9407 19.5892 21.9407 17.1434C21.9407 14.6976 19.9579 12.7148 17.5121 12.7148ZM15.0835 17.1434C15.0835 15.8022 16.1708 14.7148 17.5121 14.7148C18.8534 14.7148 19.9407 15.8022 19.9407 17.1434C19.9407 18.4847 18.8534 19.572 17.5121 19.572C16.1708 19.572 15.0835 18.4847 15.0835 17.1434Z" fill="white"/>
<path d="M1.8439 11.1494C2.13871 10.9671 2.50685 10.9506 2.81684 11.1056L6.15015 12.7722C6.64413 13.0192 6.84436 13.6199 6.59737 14.1139C6.35038 14.6078 5.74971 14.8081 5.25573 14.5611L3.52957 13.698C4.3236 17.8567 7.97955 21 12.3696 21C12.9219 21 13.3696 21.4477 13.3696 22C13.3696 22.5523 12.9219 23 12.3696 23C6.29451 23 1.36963 18.0751 1.36963 12C1.36963 11.6534 1.54908 11.3316 1.8439 11.1494Z" fill="white"/>
<path d="M7.22644 4.42969C5.88517 4.42969 4.79787 5.517 4.79787 6.85826C4.79787 8.19952 5.88517 9.28683 7.22644 9.28683C8.5677 9.28683 9.65501 8.19952 9.65501 6.85826C9.65501 5.517 8.5677 4.42969 7.22644 4.42969Z" fill="white"/>
<path d="M17.5121 14.7148C16.1708 14.7148 15.0835 15.8022 15.0835 17.1434C15.0835 18.4847 16.1708 19.572 17.5121 19.572C18.8534 19.572 19.9407 18.4847 19.9407 17.1434C19.9407 15.8022 18.8534 14.7148 17.5121 14.7148Z" fill="white"/>
</svg>
