<svg width="21" height="20" viewBox="0 0 21 20" fill="none" xmlns="http://www.w3.org/2000/svg">
<path d="M18.7965 9.45006L17.2465 7.68339L17.4632 5.34172C17.5049 4.92506 17.2215 4.54172 16.8215 4.45006L14.5215 3.92506L13.3215 1.90006C13.1049 1.54172 12.6632 1.39172 12.2799 1.55839L10.1132 2.50006L7.95488 1.57506C7.57155 1.40839 7.12155 1.55839 6.91322 1.91672L5.70488 3.93339L3.41322 4.45006C3.00488 4.54172 2.72155 4.91672 2.76322 5.34172L2.97988 7.67506L1.42988 9.45006C1.15488 9.76672 1.15488 10.2334 1.42988 10.5501L2.97988 12.3167L2.76322 14.6667C2.72155 15.0834 3.00488 15.4667 3.40488 15.5584L5.70488 16.0834L6.90488 18.1001C7.12155 18.4584 7.56322 18.6084 7.95488 18.4417L10.1132 17.5001L12.2715 18.4251C12.6549 18.5917 13.1049 18.4417 13.3132 18.0834L14.5132 16.0584L16.8132 15.5334C17.2215 15.4417 17.4965 15.0584 17.4549 14.6417L17.2382 12.3001L18.7882 10.5334C19.0715 10.2334 19.0715 9.76672 18.7965 9.45006ZM10.9465 14.1667H9.27988V12.5001H10.9465V14.1667ZM10.1132 10.8334C9.65488 10.8334 9.27988 10.4584 9.27988 10.0001V6.66672C9.27988 6.20839 9.65488 5.83339 10.1132 5.83339C10.5715 5.83339 10.9465 6.20839 10.9465 6.66672V10.0001C10.9465 10.4584 10.5715 10.8334 10.1132 10.8334Z" fill="black"/>
</svg>
