<svg width="20" height="21" viewBox="0 0 20 21" fill="none" xmlns="http://www.w3.org/2000/svg">
<path d="M9.99996 2.3075C5.39996 2.3075 1.66663 6.04083 1.66663 10.6408C1.66663 15.2408 5.39996 18.9742 9.99996 18.9742C14.6 18.9742 18.3333 15.2408 18.3333 10.6408C18.3333 6.04083 14.6 2.3075 9.99996 2.3075ZM10.8333 5.0575L11.9583 4.26583C13.475 4.7325 14.7666 5.7325 15.6083 7.04916L15.2833 8.16583L14.1583 8.54916L10.8333 6.22416V5.0575ZM8.04163 4.26583L9.16663 5.0575V6.22416L5.84163 8.54916L4.71663 8.16583L4.39163 7.04916C5.23329 5.74083 6.52496 4.74083 8.04163 4.26583ZM5.89996 14.8992L4.94996 14.9825C3.94163 13.8158 3.33329 12.2992 3.33329 10.6408C3.33329 10.5408 3.34163 10.4492 3.34996 10.3492L4.18329 9.74083L5.33329 10.1408L6.54996 13.7575L5.89996 14.8992ZM12.0833 16.9658C11.425 17.1825 10.725 17.3075 9.99996 17.3075C9.27496 17.3075 8.57496 17.1825 7.91663 16.9658L7.34163 15.7242L7.87496 14.8075H12.1333L12.6666 15.7325L12.0833 16.9658ZM11.8916 13.1408H8.10829L6.98329 9.79083L9.99996 7.67416L13.025 9.79083L11.8916 13.1408ZM15.05 14.9825L14.1 14.8992L13.4416 13.7575L14.6583 10.1408L15.8166 9.74916L16.65 10.3575C16.6583 10.4492 16.6666 10.5408 16.6666 10.6408C16.6666 12.2992 16.0583 13.8158 15.05 14.9825Z" fill="white"/>
</svg>
