<svg width="25" height="25" viewBox="0 0 25 25" fill="none" xmlns="http://www.w3.org/2000/svg">
<path fill-rule="evenodd" clip-rule="evenodd" d="M21.1561 8.90872C19.7456 8.90872 18.5456 8.00726 18.1009 6.74904H13.5972V12.1482H18.1009C18.5456 10.89 19.7456 9.98855 21.1561 9.98855C22.9452 9.98855 24.3956 11.4389 24.3956 13.2281C24.3956 15.0172 22.9452 16.4676 21.1561 16.4676C19.7456 16.4676 18.5456 15.5661 18.1009 14.3079H13.5972V19.7071H18.1009C18.5456 18.4489 19.7456 17.5474 21.1561 17.5474C22.9452 17.5474 24.3956 18.9978 24.3956 20.7869C24.3956 22.5761 22.9452 24.0264 21.1561 24.0264C19.7456 24.0264 18.5456 23.125 18.1009 21.8668H12.5174C11.921 21.8668 11.4375 21.3833 11.4375 20.7869V14.3079H9.09352C8.6488 15.5661 7.44885 16.4676 6.03834 16.4676C4.24921 16.4676 2.79883 15.0172 2.79883 13.2281C2.79883 11.4389 4.24921 9.98855 6.03834 9.98855C7.44885 9.98855 8.6488 10.89 9.09352 12.1482H11.4375V5.6692C11.4375 5.07282 11.921 4.58936 12.5174 4.58936H18.1009C18.5456 3.33114 19.7456 2.42969 21.1561 2.42969C22.9452 2.42969 24.3956 3.88007 24.3956 5.6692C24.3956 7.45834 22.9452 8.90872 21.1561 8.90872ZM20.0762 5.6692C20.0762 5.07282 20.5597 4.58936 21.1561 4.58936C21.7525 4.58936 22.2359 5.07282 22.2359 5.6692C22.2359 6.26558 21.7525 6.74904 21.1561 6.74904C20.5597 6.74904 20.0762 6.26558 20.0762 5.6692ZM7.11818 13.2281C7.11818 12.6317 6.63472 12.1482 6.03834 12.1482C5.44196 12.1482 4.9585 12.6317 4.9585 13.2281C4.9585 13.8244 5.44196 14.3079 6.03834 14.3079C6.63472 14.3079 7.11818 13.8244 7.11818 13.2281ZM20.0762 13.2281C20.0762 13.8244 20.5597 14.3079 21.1561 14.3079C21.7525 14.3079 22.2359 13.8244 22.2359 13.2281C22.2359 12.6317 21.7525 12.1482 21.1561 12.1482C20.5597 12.1482 20.0762 12.6317 20.0762 13.2281ZM21.1561 21.8668C20.5597 21.8668 20.0762 21.3833 20.0762 20.7869C20.0762 20.1906 20.5597 19.7071 21.1561 19.7071C21.7525 19.7071 22.2359 20.1906 22.2359 20.7869C22.2359 21.3833 21.7525 21.8668 21.1561 21.8668Z" fill="white"/>
<path d="M7.11818 13.2281C7.11818 12.6317 6.63472 12.1482 6.03834 12.1482C5.44196 12.1482 4.9585 12.6317 4.9585 13.2281C4.9585 13.8244 5.44196 14.3079 6.03834 14.3079C6.63472 14.3079 7.11818 13.8244 7.11818 13.2281Z" fill="white"/>
<path d="M21.1561 14.3079C20.5597 14.3079 20.0762 13.8244 20.0762 13.2281C20.0762 12.6317 20.5597 12.1482 21.1561 12.1482C21.7525 12.1482 22.2359 12.6317 22.2359 13.2281C22.2359 13.8244 21.7525 14.3079 21.1561 14.3079Z" fill="white"/>
<path d="M21.1561 4.58936C20.5597 4.58936 20.0762 5.07282 20.0762 5.6692C20.0762 6.26558 20.5597 6.74904 21.1561 6.74904C21.7525 6.74904 22.2359 6.26558 22.2359 5.6692C22.2359 5.07282 21.7525 4.58936 21.1561 4.58936Z" fill="white"/>
<path d="M20.0762 20.7869C20.0762 21.3833 20.5597 21.8668 21.1561 21.8668C21.7525 21.8668 22.2359 21.3833 22.2359 20.7869C22.2359 20.1906 21.7525 19.7071 21.1561 19.7071C20.5597 19.7071 20.0762 20.1906 20.0762 20.7869Z" fill="white"/>
</svg>
