<svg width="32" height="32" viewBox="0 0 32 32" fill="none" xmlns="http://www.w3.org/2000/svg">
<path d="M19.0266 7.99992C18.2933 9.26659 18.7333 10.9066 20 11.6399C21.2666 12.3733 22.9066 11.9333 23.64 10.6666C24.3733 9.39992 23.9333 7.75992 22.6666 7.02659C21.4 6.29325 19.76 6.73325 19.0266 7.99992Z" fill="#006633"/>
<path d="M21.12 13.8801C21.12 13.8801 18.9466 12.6268 17.6533 11.8801C14.8133 10.2268 13.64 6.77342 14.7466 3.78675C14.9733 3.17342 14.7333 2.49342 14.1733 2.17342C13.4666 1.77342 12.5466 2.08008 12.2666 2.84008C11 6.18675 11.8 9.97342 14.2133 12.5334L8.0133 23.2668C7.63997 23.9068 7.86664 24.7201 8.50664 25.0934C9.14664 25.4668 9.95997 25.2401 10.3333 24.6001L11.6666 22.2934L13.9733 23.6268L10.64 29.4001C10.2666 30.0401 10.4933 30.8534 11.1333 31.2268C11.7733 31.6001 12.5866 31.3734 12.96 30.7334L20.68 17.3734C21.9866 19.1601 22.36 21.5334 21.56 23.6668C21.3333 24.2668 21.5866 24.9468 22.1333 25.2668C22.84 25.6801 23.76 25.3734 24.0533 24.6001C25.3466 21.1068 24.6 16.8134 21.12 13.8801Z" fill="#006633"/>
<path d="M17 5.06674C17.96 5.6134 19.1734 5.2934 19.7334 4.3334C20.28 3.3734 19.96 2.16007 19 1.60007C18.04 1.0534 16.8267 1.3734 16.2667 2.3334C15.72 3.2934 16.04 4.52007 17 5.06674Z" fill="#006633"/>
</svg>
