<svg width="25" height="24" viewBox="0 0 25 24" fill="none" xmlns="http://www.w3.org/2000/svg">
<path fill-rule="evenodd" clip-rule="evenodd" d="M12.3691 14.9999C14.5782 14.9999 16.3691 13.209 16.3691 10.9999V4.99988C16.3691 2.79074 14.5782 0.999878 12.3691 0.999878C10.16 0.999878 8.3691 2.79074 8.3691 4.99988V10.9999C8.3691 13.209 10.16 14.9999 12.3691 14.9999ZM20.3691 10.9999C20.3691 10.4476 19.9214 9.99989 19.3691 9.99989C18.8169 9.99989 18.3691 10.4476 18.3691 10.9999C18.3691 14.3136 15.6828 16.9999 12.3691 16.9999C9.05543 16.9999 6.36914 14.3136 6.36914 10.9999C6.36914 10.4476 5.92143 9.99989 5.36914 9.99989C4.81686 9.99989 4.36914 10.4476 4.36914 10.9999C4.37279 15.0287 7.37188 18.4263 11.3691 18.9299V20.9999H9.36914C8.81686 20.9999 8.36914 21.4476 8.36914 21.9999C8.36914 22.5522 8.81686 22.9999 9.36914 22.9999H15.3691C15.9214 22.9999 16.3691 22.5522 16.3691 21.9999C16.3691 21.4476 15.9214 20.9999 15.3691 20.9999H13.3691V18.9299C17.3664 18.4263 20.3655 15.0287 20.3691 10.9999Z" fill="white"/>
</svg>
