<svg width="16" height="17" viewBox="0 0 16 17" fill="none" xmlns="http://www.w3.org/2000/svg">
<path d="M8.00001 8.0932C8.00001 7.65987 7.74001 7.2732 7.34668 7.10654L3.62668 5.5332C2.64001 6.6532 2.08001 7.99987 1.76001 9.16654H6.92668C7.52001 9.16654 8.00001 8.68654 8.00001 8.0932Z" fill="white"/>
<path d="M14.64 7.98001C14.3666 5.04001 11.6 2.98667 8.65331 3.18001C6.97998 3.28667 5.69331 3.80667 4.69998 4.54001L7.85998 5.88001C8.74665 6.26001 9.32665 7.12667 9.32665 8.09334C9.32665 9.42001 8.24665 10.5 6.91998 10.5H1.47331C1.33331 11.3733 1.33331 11.9667 1.33331 11.9667V12.5C1.33331 13.2333 1.93331 13.8333 2.66665 13.8333H9.33331C12.4466 13.8333 14.94 11.16 14.64 7.98001Z" fill="white"/>
</svg>
