<svg width="20" height="20" viewBox="0 0 20 20" fill="none" xmlns="http://www.w3.org/2000/svg">
<path fill-rule="evenodd" clip-rule="evenodd" d="M4.99994 2C5.26516 2 5.51951 2.10536 5.70705 2.29289C5.89458 2.48043 5.99994 2.73478 5.99994 3V4H6.99994C7.26516 4 7.51951 4.10536 7.70705 4.29289C7.89458 4.48043 7.99994 4.73478 7.99994 5C7.99994 5.26522 7.89458 5.51957 7.70705 5.70711C7.51951 5.89464 7.26516 6 6.99994 6H5.99994V7C5.99994 7.26522 5.89458 7.51957 5.70705 7.70711C5.51951 7.89464 5.26516 8 4.99994 8C4.73472 8 4.48037 7.89464 4.29283 7.70711C4.1053 7.51957 3.99994 7.26522 3.99994 7V6H2.99994C2.73472 6 2.48037 5.89464 2.29283 5.70711C2.1053 5.51957 1.99994 5.26522 1.99994 5C1.99994 4.73478 2.1053 4.48043 2.29283 4.29289C2.48037 4.10536 2.73472 4 2.99994 4H3.99994V3C3.99994 2.73478 4.1053 2.48043 4.29283 2.29289C4.48037 2.10536 4.73472 2 4.99994 2ZM4.99994 12C5.26516 12 5.51951 12.1054 5.70705 12.2929C5.89458 12.4804 5.99994 12.7348 5.99994 13V14H6.99994C7.26516 14 7.51951 14.1054 7.70705 14.2929C7.89458 14.4804 7.99994 14.7348 7.99994 15C7.99994 15.2652 7.89458 15.5196 7.70705 15.7071C7.51951 15.8946 7.26516 16 6.99994 16H5.99994V17C5.99994 17.2652 5.89458 17.5196 5.70705 17.7071C5.51951 17.8946 5.26516 18 4.99994 18C4.73472 18 4.48037 17.8946 4.29283 17.7071C4.1053 17.5196 3.99994 17.2652 3.99994 17V16H2.99994C2.73472 16 2.48037 15.8946 2.29283 15.7071C2.1053 15.5196 1.99994 15.2652 1.99994 15C1.99994 14.7348 2.1053 14.4804 2.29283 14.2929C2.48037 14.1054 2.73472 14 2.99994 14H3.99994V13C3.99994 12.7348 4.1053 12.4804 4.29283 12.2929C4.48037 12.1054 4.73472 12 4.99994 12ZM11.9999 2C12.2206 1.99993 12.4351 2.07286 12.6101 2.20744C12.785 2.34201 12.9104 2.53066 12.9669 2.744L14.1459 7.2L17.4999 9.134C17.6519 9.22177 17.7782 9.34801 17.8659 9.50002C17.9537 9.65204 17.9999 9.82447 17.9999 10C17.9999 10.1755 17.9537 10.348 17.8659 10.5C17.7782 10.652 17.6519 10.7782 17.4999 10.866L14.1459 12.801L12.9659 17.256C12.9093 17.4691 12.7839 17.6576 12.6091 17.792C12.4343 17.9264 12.22 17.9993 11.9994 17.9993C11.7789 17.9993 11.5646 17.9264 11.3898 17.792C11.215 17.6576 11.0895 17.4691 11.0329 17.256L9.85394 12.8L6.49994 10.866C6.34793 10.7782 6.2217 10.652 6.13394 10.5C6.04619 10.348 5.99998 10.1755 5.99998 10C5.99998 9.82447 6.04619 9.65204 6.13394 9.50002C6.2217 9.34801 6.34793 9.22177 6.49994 9.134L9.85394 7.199L11.0339 2.744C11.0904 2.53083 11.2157 2.3423 11.3904 2.20774C11.5651 2.07318 11.7794 2.00015 11.9999 2Z" fill="black"/>
</svg>
