<svg width="768" height="64" viewBox="0 0 768 64" fill="none" xmlns="http://www.w3.org/2000/svg">
<g clip-path="url(#clip0_1154_3380)">
<rect width="1231" height="64" fill="white"/>
<path d="M269.172 -0.105469L230.641 64.3755H307.703L269.172 -0.105469Z" fill="white"/>
<path d="M577.196 -0.105469L538.665 64.3755H615.727L577.196 -0.105469Z" fill="white"/>
<path d="M37.9894 -0.105469L76.5203 64.3755H-0.541458L37.9894 -0.105469Z" fill="#1A1A1A"/>
<path d="M346.234 -0.105469L384.765 64.3755H307.703L346.234 -0.105469Z" fill="#1A1A1A"/>
<path d="M654.257 -0.105469L692.788 64.3755H615.727L654.257 -0.105469Z" fill="#1A1A1A"/>
<path d="M307.707 64.377L269.176 -0.103973L346.238 -0.103973L307.707 64.377Z" fill="black"/>
<path d="M-3.8147e-06 64L-38.0301 -0.103973L39.0317 -0.103973L-3.8147e-06 64Z" fill="black"/>
<path d="M615.727 64.377L577.196 -0.103973L654.258 -0.103973L615.727 64.377Z" fill="black"/>
<path d="M153.58 64.377L115.049 -0.103973L192.111 -0.103973L153.58 64.377Z" fill="#4C9D34"/>
<path d="M461.827 64.377L423.296 -0.103973L500.358 -0.103973L461.827 64.377Z" fill="#4C9D34"/>
<path d="M769.125 64.377L730.594 -0.103973L807.656 -0.103973L769.125 64.377Z" fill="#4C9D34"/>
<path d="M230.642 64.377L269.173 -0.103973L192.111 -0.103973L230.642 64.377Z" fill="#E5E5E5"/>
<path d="M538.666 64.377L577.197 -0.103973L500.135 -0.103973L538.666 64.377Z" fill="#E5E5E5"/>
<path d="M76.5196 64.377L37.9887 -0.103973L115.05 -0.103973L76.5196 64.377Z" fill="#1A7547"/>
<path d="M384.766 64.377L346.235 -0.103973L423.297 -0.103973L384.766 64.377Z" fill="#1A7547"/>
<path d="M692.79 64.377L654.259 -0.103973L731.32 -0.103973L692.79 64.377Z" fill="#1A7547"/>
<path d="M192.115 -0.105469L230.646 64.3755H153.584L192.115 -0.105469Z" fill="#55AE3A"/>
<path d="M500.359 -0.105469L538.89 64.3755H461.828L500.359 -0.105469Z" fill="#55AE3A"/>
<path d="M115.052 -0.105469L153.583 64.3755H76.5211L115.052 -0.105469Z" fill="#006633"/>
<path d="M423.3 -0.105469L461.831 64.3755H384.77L423.3 -0.105469Z" fill="#006633"/>
<path d="M730.878 -0.105469L769.409 64.3755H692.347L730.878 -0.105469Z" fill="#006633"/>
<rect width="1231" height="64" fill="#006633" fill-opacity="0.8"/>
</g>
<defs>
<clipPath id="clip0_1154_3380">
<rect width="1231" height="64" fill="white"/>
</clipPath>
</defs>
</svg>
